<mxfile host="app.diagrams.net" modified="2021-07-04T07:14:43.299Z" agent="5.0 (Macintosh; Intel Mac OS X 10_15_7) AppleWebKit/537.36 (KHTML, like Gecko) Chrome/91.0.4472.114 Safari/537.36" etag="V6aeO4NTrXuS3qgOej8U" version="14.8.1" type="github">
  <diagram id="-TrO8R4JTuIZQbB_k3LD" name="Page-1">
    <mxGraphModel dx="1064" dy="639" grid="1" gridSize="10" guides="1" tooltips="1" connect="1" arrows="1" fold="1" page="1" pageScale="1" pageWidth="827" pageHeight="1169" math="0" shadow="0">
      <root>
        <mxCell id="0" />
        <mxCell id="1" parent="0" />
        <mxCell id="cxt5U_e19xRPHu2T1gp0-1" value="" style="shape=table;startSize=0;container=1;collapsible=0;childLayout=tableLayout;fillColor=#B2C9AB;strokeColor=#788AA3;fontColor=#46495D;comic=1;fontFamily=Comic Sans MS;" vertex="1" parent="1">
          <mxGeometry x="380" y="230" width="150" height="310" as="geometry" />
        </mxCell>
        <mxCell id="cxt5U_e19xRPHu2T1gp0-2" value="" style="shape=partialRectangle;collapsible=0;dropTarget=0;pointerEvents=0;fillColor=none;top=0;left=0;bottom=0;right=0;points=[[0,0.5],[1,0.5]];portConstraint=eastwest;strokeColor=#788AA3;fontColor=#46495D;fontFamily=Comic Sans MS;" vertex="1" parent="cxt5U_e19xRPHu2T1gp0-1">
          <mxGeometry width="150" height="62" as="geometry" />
        </mxCell>
        <mxCell id="cxt5U_e19xRPHu2T1gp0-3" value="Header" style="shape=partialRectangle;html=1;whiteSpace=wrap;connectable=0;overflow=hidden;fillColor=none;top=0;left=0;bottom=0;right=0;strokeColor=#788AA3;fontColor=#46495D;fontFamily=Comic Sans MS;" vertex="1" parent="cxt5U_e19xRPHu2T1gp0-2">
          <mxGeometry width="150" height="62" as="geometry" />
        </mxCell>
        <mxCell id="cxt5U_e19xRPHu2T1gp0-4" value="" style="shape=partialRectangle;collapsible=0;dropTarget=0;pointerEvents=0;fillColor=none;top=0;left=0;bottom=0;right=0;points=[[0,0.5],[1,0.5]];portConstraint=eastwest;strokeColor=#788AA3;fontColor=#46495D;fontFamily=Comic Sans MS;" vertex="1" parent="cxt5U_e19xRPHu2T1gp0-1">
          <mxGeometry y="62" width="150" height="62" as="geometry" />
        </mxCell>
        <mxCell id="cxt5U_e19xRPHu2T1gp0-5" value="Questions" style="shape=partialRectangle;html=1;whiteSpace=wrap;connectable=0;overflow=hidden;fillColor=none;top=0;left=0;bottom=0;right=0;strokeColor=#788AA3;fontColor=#46495D;fontFamily=Comic Sans MS;" vertex="1" parent="cxt5U_e19xRPHu2T1gp0-4">
          <mxGeometry width="150" height="62" as="geometry" />
        </mxCell>
        <mxCell id="cxt5U_e19xRPHu2T1gp0-6" value="" style="shape=partialRectangle;collapsible=0;dropTarget=0;pointerEvents=0;fillColor=none;top=0;left=0;bottom=0;right=0;points=[[0,0.5],[1,0.5]];portConstraint=eastwest;strokeColor=#788AA3;fontColor=#46495D;fontFamily=Comic Sans MS;" vertex="1" parent="cxt5U_e19xRPHu2T1gp0-1">
          <mxGeometry y="124" width="150" height="62" as="geometry" />
        </mxCell>
        <mxCell id="cxt5U_e19xRPHu2T1gp0-7" value="Anwers" style="shape=partialRectangle;html=1;whiteSpace=wrap;connectable=0;overflow=hidden;fillColor=none;top=0;left=0;bottom=0;right=0;strokeColor=#788AA3;fontColor=#46495D;fontFamily=Comic Sans MS;" vertex="1" parent="cxt5U_e19xRPHu2T1gp0-6">
          <mxGeometry width="150" height="62" as="geometry" />
        </mxCell>
        <mxCell id="cxt5U_e19xRPHu2T1gp0-8" value="" style="shape=partialRectangle;collapsible=0;dropTarget=0;pointerEvents=0;fillColor=none;top=0;left=0;bottom=0;right=0;points=[[0,0.5],[1,0.5]];portConstraint=eastwest;strokeColor=#788AA3;fontColor=#46495D;fontFamily=Comic Sans MS;" vertex="1" parent="cxt5U_e19xRPHu2T1gp0-1">
          <mxGeometry y="186" width="150" height="62" as="geometry" />
        </mxCell>
        <mxCell id="cxt5U_e19xRPHu2T1gp0-9" value="Name Server" style="shape=partialRectangle;html=1;whiteSpace=wrap;connectable=0;overflow=hidden;fillColor=none;top=0;left=0;bottom=0;right=0;strokeColor=#788AA3;fontColor=#46495D;fontFamily=Comic Sans MS;" vertex="1" parent="cxt5U_e19xRPHu2T1gp0-8">
          <mxGeometry width="150" height="62" as="geometry" />
        </mxCell>
        <mxCell id="cxt5U_e19xRPHu2T1gp0-10" value="" style="shape=partialRectangle;collapsible=0;dropTarget=0;pointerEvents=0;fillColor=none;top=0;left=0;bottom=0;right=0;points=[[0,0.5],[1,0.5]];portConstraint=eastwest;strokeColor=#788AA3;fontColor=#46495D;fontFamily=Comic Sans MS;" vertex="1" parent="cxt5U_e19xRPHu2T1gp0-1">
          <mxGeometry y="248" width="150" height="62" as="geometry" />
        </mxCell>
        <mxCell id="cxt5U_e19xRPHu2T1gp0-11" value="Addiontial Resource" style="shape=partialRectangle;html=1;whiteSpace=wrap;connectable=0;overflow=hidden;fillColor=none;top=0;left=0;bottom=0;right=0;strokeColor=#788AA3;fontColor=#46495D;fontFamily=Comic Sans MS;" vertex="1" parent="cxt5U_e19xRPHu2T1gp0-10">
          <mxGeometry width="150" height="62" as="geometry" />
        </mxCell>
        <mxCell id="cxt5U_e19xRPHu2T1gp0-12" value="DNS Packet" style="text;html=1;align=center;verticalAlign=middle;resizable=0;points=[];autosize=1;strokeColor=none;fontColor=#46495D;fontFamily=Comic Sans MS;" vertex="1" parent="1">
          <mxGeometry x="415" y="180" width="80" height="20" as="geometry" />
        </mxCell>
      </root>
    </mxGraphModel>
  </diagram>
</mxfile>
